manchu-ag.ufo
<glyph name="_B.fina" format="2">
  <advance width="747"/>
  <outline>
    <contour>
      <point x="218" y="123" type="curve"/>
      <point x="127" y="123"/>
      <point x="81" y="203"/>
      <point x="78" y="364" type="curve"/>
      <point x="316" y="364" type="line"/>
      <point x="323" y="344"/>
      <point x="326" y="314"/>
      <point x="326" y="275" type="curve"/>
      <point x="326" y="230"/>
      <point x="317" y="194"/>
      <point x="299" y="166" type="curve"/>
      <point x="280" y="137"/>
      <point x="253" y="123"/>
    </contour>
    <contour>
      <point x="397" y="-264" type="curve"/>
      <point x="479" y="-264" type="line"/>
      <point x="465" y="-237"/>
      <point x="458" y="-212"/>
      <point x="458" y="-187" type="curve"/>
      <point x="458" y="-143"/>
      <point x="469" y="-104"/>
      <point x="492" y="-71" type="curve"/>
      <point x="503" y="-52"/>
      <point x="518" y="-31"/>
      <point x="536" y="-7" type="curve"/>
      <point x="610" y="90"/>
      <point x="659" y="176"/>
      <point x="682" y="252" type="curve"/>
      <point x="695" y="295"/>
      <point x="702" y="340"/>
      <point x="702" y="388" type="curve"/>
      <point x="702" y="551"/>
      <point x="647" y="667"/>
      <point x="537" y="735" type="curve"/>
      <point x="484" y="766"/>
      <point x="419" y="782"/>
      <point x="344" y="782" type="curve"/>
      <point x="197" y="782"/>
      <point x="96" y="724"/>
      <point x="39" y="608" type="curve"/>
      <point x="12" y="552"/>
      <point x="-1" y="485"/>
      <point x="-1" y="408" type="curve"/>
      <point x="-2" y="163"/>
      <point x="73" y="40"/>
      <point x="225" y="40" type="curve"/>
      <point x="293" y="40"/>
      <point x="345" y="78"/>
      <point x="382" y="153" type="curve"/>
      <point x="397" y="188"/>
      <point x="405" y="229"/>
      <point x="405" y="275" type="curve"/>
      <point x="405" y="296"/>
      <point x="403" y="325"/>
      <point x="398" y="362" type="curve"/>
      <point x="393" y="398"/>
      <point x="388" y="425"/>
      <point x="382" y="444" type="curve"/>
      <point x="78" y="444" type="line"/>
      <point x="81" y="525"/>
      <point x="105" y="588"/>
      <point x="152" y="633" type="curve"/>
      <point x="199" y="677"/>
      <point x="263" y="699"/>
      <point x="344" y="699" type="curve"/>
      <point x="433" y="699"/>
      <point x="501" y="672"/>
      <point x="550" y="617" type="curve"/>
      <point x="599" y="562"/>
      <point x="623" y="486"/>
      <point x="623" y="388" type="curve"/>
      <point x="623" y="304"/>
      <point x="603" y="230"/>
      <point x="562" y="165" type="curve"/>
      <point x="541" y="130"/>
      <point x="515" y="91"/>
      <point x="484" y="50" type="curve"/>
      <point x="447" y="3"/>
      <point x="421" y="-38"/>
      <point x="404" y="-73" type="curve"/>
      <point x="387" y="-109"/>
      <point x="378" y="-147"/>
      <point x="378" y="-187" type="curve"/>
      <point x="378" y="-214"/>
      <point x="384" y="-239"/>
    </contour>
  </outline>
</glyph>
<glyph name="_B.medi" format="2">
  <advance width="511"/>
  <outline>
    <contour>
      <point x="218" y="123" type="curve"/>
      <point x="127" y="123"/>
      <point x="81" y="203"/>
      <point x="78" y="364" type="curve"/>
      <point x="316" y="364" type="line"/>
      <point x="323" y="346"/>
      <point x="326" y="316"/>
      <point x="326" y="275" type="curve"/>
      <point x="326" y="230"/>
      <point x="317" y="194"/>
      <point x="299" y="166" type="curve"/>
      <point x="280" y="137"/>
      <point x="253" y="123"/>
    </contour>
    <contour>
      <point x="227" y="40" type="curve"/>
      <point x="296" y="40"/>
      <point x="348" y="78"/>
      <point x="382" y="154" type="curve"/>
      <point x="397" y="190"/>
      <point x="405" y="230"/>
      <point x="405" y="275" type="curve"/>
      <point x="405" y="295"/>
      <point x="403" y="324"/>
      <point x="398" y="361" type="curve"/>
      <point x="393" y="398"/>
      <point x="388" y="425"/>
      <point x="382" y="444" type="curve"/>
      <point x="78" y="444" type="line"/>
      <point x="80" y="545"/>
      <point x="112" y="619"/>
      <point x="174" y="666" type="curve"/>
      <point x="206" y="688"/>
      <point x="244" y="699"/>
      <point x="289" y="699" type="curve"/>
      <point x="356" y="699"/>
      <point x="409" y="670"/>
      <point x="448" y="611" type="curve"/>
      <point x="487" y="552"/>
      <point x="508" y="470"/>
      <point x="511" y="364" type="curve"/>
      <point x="585" y="364" type="line"/>
      <point x="585" y="476"/>
      <point x="560" y="574"/>
      <point x="511" y="657" type="curve"/>
      <point x="457" y="740"/>
      <point x="383" y="782"/>
      <point x="289" y="782" type="curve"/>
      <point x="226" y="782"/>
      <point x="172" y="766"/>
      <point x="129" y="735" type="curve"/>
      <point x="86" y="704"/>
      <point x="53" y="659"/>
      <point x="31" y="601" type="curve"/>
      <point x="10" y="544"/>
      <point x="-1" y="480"/>
      <point x="-1" y="408" type="curve"/>
      <point x="-2" y="163"/>
      <point x="74" y="40"/>
    </contour>
  </outline>
</glyph>
<glyph name="_BI.fina" format="2">
  <advance width="1121"/>
  <outline>
    <contour>
      <point x="218" y="123" type="curve"/>
      <point x="127" y="123"/>
      <point x="81" y="203"/>
      <point x="78" y="364" type="curve"/>
      <point x="316" y="364" type="line"/>
      <point x="323" y="346"/>
      <point x="326" y="316"/>
      <point x="326" y="275" type="curve"/>
      <point x="326" y="230"/>
      <point x="317" y="194"/>
      <point x="299" y="166" type="curve"/>
      <point x="280" y="137"/>
      <point x="253" y="123"/>
    </contour>
    <contour>
      <point x="683" y="-67" type="curve"/>
      <point x="756" y="-31" type="line"/>
      <point x="675" y="113"/>
      <point x="621" y="245"/>
      <point x="596" y="364" type="curve"/>
      <point x="901" y="364" type="line"/>
      <point x="936" y="364"/>
      <point x="961" y="357"/>
      <point x="976" y="343" type="curve"/>
      <point x="991" y="328"/>
      <point x="999" y="307"/>
      <point x="999" y="279" type="curve"/>
      <point x="999" y="234"/>
      <point x="992" y="195"/>
      <point x="977" y="162" type="curve"/>
      <point x="1051" y="162" type="line"/>
      <point x="1068" y="198"/>
      <point x="1076" y="237"/>
      <point x="1076" y="279" type="curve"/>
      <point x="1077" y="389"/>
      <point x="1018" y="444"/>
      <point x="901" y="444" type="curve"/>
      <point x="581" y="444" type="line"/>
      <point x="556" y="589"/>
      <point x="508" y="688"/>
      <point x="435" y="741" type="curve"/>
      <point x="396" y="768"/>
      <point x="345" y="782"/>
      <point x="284" y="782" type="curve"/>
      <point x="221" y="782"/>
      <point x="169" y="766"/>
      <point x="126" y="735" type="curve"/>
      <point x="83" y="704"/>
      <point x="51" y="659"/>
      <point x="30" y="601" type="curve"/>
      <point x="9" y="544"/>
      <point x="-1" y="480"/>
      <point x="-1" y="408" type="curve"/>
      <point x="-1" y="163"/>
      <point x="74" y="40"/>
      <point x="224" y="40" type="curve"/>
      <point x="293" y="40"/>
      <point x="346" y="78"/>
      <point x="382" y="153" type="curve"/>
      <point x="397" y="188"/>
      <point x="405" y="229"/>
      <point x="405" y="275" type="curve"/>
      <point x="405" y="295"/>
      <point x="403" y="324"/>
      <point x="398" y="361" type="curve"/>
      <point x="393" y="398"/>
      <point x="388" y="425"/>
      <point x="382" y="444" type="curve"/>
      <point x="78" y="444" type="line"/>
      <point x="79" y="545"/>
      <point x="110" y="619"/>
      <point x="171" y="666" type="curve"/>
      <point x="202" y="688"/>
      <point x="239" y="699"/>
      <point x="284" y="699" type="curve"/>
      <point x="329" y="699"/>
      <point x="367" y="688"/>
      <point x="396" y="666" type="curve"/>
      <point x="425" y="643"/>
      <point x="449" y="610"/>
      <point x="467" y="567" type="curve"/>
      <point x="484" y="525"/>
      <point x="497" y="475"/>
      <point x="506" y="418" type="curve"/>
      <point x="520" y="335"/>
      <point x="539" y="259"/>
      <point x="563" y="192" type="curve"/>
      <point x="583" y="136"/>
      <point x="623" y="50"/>
    </contour>
  </outline>
</glyph>
<glyph name="_BI.medi" format="2">
  <advance width="871"/>
  <outline>
    <contour>
      <point x="218" y="123" type="curve"/>
      <point x="127" y="123"/>
      <point x="81" y="203"/>
      <point x="78" y="364" type="curve"/>
      <point x="316" y="364" type="line"/>
      <point x="323" y="345"/>
      <point x="326" y="314"/>
      <point x="326" y="271" type="curve"/>
      <point x="326" y="227"/>
      <point x="317" y="191"/>
      <point x="298" y="164" type="curve"/>
      <point x="279" y="137"/>
      <point x="252" y="123"/>
    </contour>
    <contour>
      <point x="683" y="-67" type="curve"/>
      <point x="756" y="-31" type="line"/>
      <point x="675" y="113"/>
      <point x="621" y="245"/>
      <point x="596" y="364" type="curve"/>
      <point x="901" y="364" type="line"/>
      <point x="901" y="444" type="line"/>
      <point x="581" y="444" type="line"/>
      <point x="556" y="589"/>
      <point x="508" y="688"/>
      <point x="435" y="741" type="curve"/>
      <point x="396" y="768"/>
      <point x="345" y="782"/>
      <point x="284" y="782" type="curve"/>
      <point x="196" y="782"/>
      <point x="126" y="749"/>
      <point x="75" y="683" type="curve"/>
      <point x="24" y="618"/>
      <point x="-1" y="526"/>
      <point x="-1" y="408" type="curve"/>
      <point x="-2" y="163"/>
      <point x="73" y="40"/>
      <point x="226" y="40" type="curve"/>
      <point x="297" y="40"/>
      <point x="350" y="78"/>
      <point x="383" y="154" type="curve"/>
      <point x="398" y="190"/>
      <point x="405" y="230"/>
      <point x="405" y="275" type="curve"/>
      <point x="405" y="295"/>
      <point x="403" y="324"/>
      <point x="398" y="361" type="curve"/>
      <point x="393" y="398"/>
      <point x="388" y="425"/>
      <point x="382" y="444" type="curve"/>
      <point x="78" y="444" type="line"/>
      <point x="79" y="545"/>
      <point x="110" y="619"/>
      <point x="171" y="666" type="curve"/>
      <point x="202" y="688"/>
      <point x="239" y="699"/>
      <point x="284" y="699" type="curve"/>
      <point x="329" y="699"/>
      <point x="367" y="688"/>
      <point x="396" y="666" type="curve"/>
      <point x="425" y="643"/>
      <point x="449" y="610"/>
      <point x="467" y="567" type="curve"/>
      <point x="484" y="525"/>
      <point x="497" y="475"/>
      <point x="506" y="418" type="curve"/>
      <point x="523" y="324"/>
      <point x="542" y="249"/>
      <point x="563" y="192" type="curve"/>
      <point x="588" y="126"/>
      <point x="628" y="40"/>
    </contour>
  </outline>
</glyph>
<glyph name="_BL.medi" format="2">
  <advance width="817"/>
  <outline>
    <contour>
      <point x="218" y="123" type="curve"/>
      <point x="127" y="123"/>
      <point x="81" y="203"/>
      <point x="78" y="364" type="curve"/>
      <point x="316" y="364" type="line"/>
      <point x="323" y="346"/>
      <point x="326" y="316"/>
      <point x="326" y="275" type="curve"/>
      <point x="326" y="224"/>
      <point x="316" y="186"/>
      <point x="296" y="161" type="curve"/>
      <point x="275" y="136"/>
      <point x="249" y="123"/>
    </contour>
    <contour>
      <point x="302" y="659" type="curve"/>
      <point x="371" y="659"/>
      <point x="425" y="634"/>
      <point x="464" y="585" type="curve"/>
      <point x="503" y="535"/>
      <point x="526" y="461"/>
      <point x="533" y="364" type="curve"/>
      <point x="552" y="96" type="line"/>
      <point x="618" y="96" type="line"/>
      <point x="637" y="364" type="line"/>
      <point x="847" y="364" type="line"/>
      <point x="847" y="444" type="line"/>
      <point x="606" y="444" type="line"/>
      <point x="594" y="509"/>
      <point x="574" y="565"/>
      <point x="547" y="611" type="curve"/>
      <point x="548" y="653"/>
      <point x="556" y="693"/>
      <point x="570" y="731" type="curve"/>
      <point x="583" y="768"/>
      <point x="603" y="807"/>
      <point x="629" y="848" type="curve"/>
      <point x="629" y="914" type="line"/>
      <point x="509" y="914" type="line"/>
      <point x="460" y="914"/>
      <point x="423" y="917"/>
      <point x="397" y="922" type="curve"/>
      <point x="372" y="927"/>
      <point x="349" y="936"/>
      <point x="329" y="950" type="curve"/>
      <point x="329" y="872" type="line"/>
      <point x="345" y="859"/>
      <point x="365" y="849"/>
      <point x="389" y="843" type="curve"/>
      <point x="413" y="837"/>
      <point x="453" y="834"/>
      <point x="509" y="834" type="curve"/>
      <point x="537" y="834" type="line"/>
      <point x="511" y="787"/>
      <point x="493" y="736"/>
      <point x="484" y="683" type="curve"/>
      <point x="437" y="722"/>
      <point x="376" y="742"/>
      <point x="302" y="742" type="curve"/>
      <point x="207" y="742"/>
      <point x="133" y="712"/>
      <point x="79" y="653" type="curve"/>
      <point x="26" y="594"/>
      <point x="-1" y="512"/>
      <point x="-1" y="408" type="curve"/>
      <point x="-1" y="285"/>
      <point x="18" y="193"/>
      <point x="55" y="132" type="curve"/>
      <point x="93" y="71"/>
      <point x="149" y="40"/>
      <point x="224" y="40" type="curve"/>
      <point x="259" y="40"/>
      <point x="291" y="50"/>
      <point x="318" y="69" type="curve"/>
      <point x="345" y="88"/>
      <point x="367" y="116"/>
      <point x="382" y="153" type="curve"/>
      <point x="397" y="190"/>
      <point x="405" y="230"/>
      <point x="405" y="275" type="curve"/>
      <point x="405" y="296"/>
      <point x="403" y="325"/>
      <point x="399" y="360" type="curve"/>
      <point x="394" y="396"/>
      <point x="389" y="424"/>
      <point x="382" y="444" type="curve"/>
      <point x="78" y="444" type="line"/>
      <point x="79" y="511"/>
      <point x="100" y="563"/>
      <point x="141" y="602" type="curve"/>
      <point x="182" y="640"/>
      <point x="235" y="659"/>
    </contour>
  </outline>
</glyph>
<glyph name="_BM.medi" format="2">
  <advance width="817"/>
  <outline>
    <contour>
      <point x="318" y="734" type="line"/>
      <point x="318" y="731"/>
      <point x="318" y="731"/>
      <point x="317" y="734" type="curve"/>
    </contour>
    <contour>
      <point x="218" y="123" type="curve"/>
      <point x="127" y="123"/>
      <point x="81" y="203"/>
      <point x="78" y="364" type="curve"/>
      <point x="316" y="364" type="line"/>
      <point x="323" y="346"/>
      <point x="326" y="316"/>
      <point x="326" y="275" type="curve"/>
      <point x="326" y="224"/>
      <point x="316" y="186"/>
      <point x="296" y="161" type="curve"/>
      <point x="275" y="136"/>
      <point x="249" y="123"/>
    </contour>
    <contour>
      <point x="306" y="782" type="line"/>
      <point x="211" y="782"/>
      <point x="136" y="749"/>
      <point x="81" y="683" type="curve"/>
      <point x="26" y="617"/>
      <point x="-1" y="525"/>
      <point x="-1" y="408" type="curve"/>
      <point x="-1" y="285"/>
      <point x="18" y="193"/>
      <point x="55" y="132" type="curve"/>
      <point x="93" y="71"/>
      <point x="149" y="40"/>
      <point x="224" y="40" type="curve"/>
      <point x="259" y="40"/>
      <point x="291" y="50"/>
      <point x="318" y="69" type="curve"/>
      <point x="345" y="88"/>
      <point x="367" y="116"/>
      <point x="382" y="153" type="curve"/>
      <point x="397" y="190"/>
      <point x="405" y="230"/>
      <point x="405" y="275" type="curve"/>
      <point x="405" y="296"/>
      <point x="403" y="325"/>
      <point x="399" y="360" type="curve"/>
      <point x="394" y="396"/>
      <point x="389" y="424"/>
      <point x="382" y="444" type="curve"/>
      <point x="78" y="444" type="line"/>
      <point x="79" y="522"/>
      <point x="100" y="584"/>
      <point x="141" y="630" type="curve"/>
      <point x="181" y="676"/>
      <point x="236" y="699"/>
      <point x="306" y="699" type="curve"/>
      <point x="377" y="699"/>
      <point x="431" y="671"/>
      <point x="467" y="615" type="curve"/>
      <point x="503" y="559"/>
      <point x="525" y="475"/>
      <point x="533" y="364" type="curve"/>
      <point x="552" y="96" type="line"/>
      <point x="618" y="96" type="line"/>
      <point x="637" y="364" type="line"/>
      <point x="847" y="364" type="line"/>
      <point x="847" y="444" type="line"/>
      <point x="606" y="444" type="line"/>
      <point x="591" y="553"/>
      <point x="559" y="636"/>
      <point x="508" y="695" type="curve"/>
      <point x="473" y="735"/>
      <point x="430" y="761"/>
      <point x="381" y="773" type="curve"/>
      <point x="379" y="781"/>
      <point x="377" y="789"/>
      <point x="375" y="798" type="curve"/>
      <point x="372" y="812"/>
      <point x="368" y="826"/>
      <point x="364" y="840" type="curve"/>
      <point x="400" y="840" type="line"/>
      <point x="447" y="840"/>
      <point x="484" y="842"/>
      <point x="511" y="847" type="curve"/>
      <point x="538" y="852"/>
      <point x="560" y="862"/>
      <point x="579" y="878" type="curve"/>
      <point x="579" y="955" type="line"/>
      <point x="544" y="932"/>
      <point x="484" y="920"/>
      <point x="400" y="920" type="curve"/>
      <point x="279" y="920" type="line"/>
      <point x="279" y="854" type="line"/>
      <point x="287" y="836"/>
      <point x="294" y="819"/>
      <point x="299" y="803" type="curve"/>
    </contour>
  </outline>
</glyph>
<glyph name="_BOI.medi" format="2">
  <advance width="1178"/>
  <outline>
    <contour>
      <point x="622" y="444" type="curve"/>
      <point x="81" y="444" type="line"/>
      <point x="104" y="614"/>
      <point x="196" y="699"/>
      <point x="359" y="699" type="curve"/>
      <point x="459" y="699"/>
      <point x="532" y="659"/>
      <point x="579" y="578" type="curve"/>
      <point x="601" y="539"/>
      <point x="615" y="495"/>
    </contour>
    <contour>
      <point x="202" y="123" type="curve"/>
      <point x="168" y="123"/>
      <point x="142" y="133"/>
      <point x="124" y="153" type="curve"/>
      <point x="105" y="173"/>
      <point x="93" y="202"/>
      <point x="87" y="241" type="curve"/>
      <point x="81" y="278"/>
      <point x="78" y="319"/>
      <point x="78" y="364" type="curve"/>
      <point x="313" y="364" type="line"/>
      <point x="313" y="281" type="line"/>
      <point x="313" y="234"/>
      <point x="303" y="196"/>
      <point x="284" y="167" type="curve"/>
      <point x="264" y="138"/>
      <point x="237" y="123"/>
    </contour>
    <contour>
      <point x="492" y="123" type="curve"/>
      <point x="425" y="123"/>
      <point x="392" y="177"/>
      <point x="392" y="286" type="curve"/>
      <point x="392" y="364" type="line"/>
      <point x="627" y="364" type="line"/>
      <point x="626" y="247"/>
      <point x="607" y="175"/>
      <point x="571" y="147" type="curve"/>
      <point x="552" y="131"/>
      <point x="525" y="123"/>
    </contour>
    <contour>
      <point x="990" y="-67" type="curve"/>
      <point x="1063" y="-31" type="line"/>
      <point x="990" y="98"/>
      <point x="935" y="229"/>
      <point x="896" y="364" type="curve"/>
      <point x="1208" y="364" type="line"/>
      <point x="1208" y="444" type="line"/>
      <point x="702" y="444" type="line"/>
      <point x="685" y="585"/>
      <point x="628" y="684"/>
      <point x="529" y="741" type="curve"/>
      <point x="481" y="768"/>
      <point x="424" y="782"/>
      <point x="359" y="782" type="curve"/>
      <point x="285" y="782"/>
      <point x="221" y="765"/>
      <point x="167" y="731" type="curve"/>
      <point x="113" y="697"/>
      <point x="71" y="649"/>
      <point x="42" y="587" type="curve"/>
      <point x="13" y="526"/>
      <point x="-1" y="455"/>
      <point x="-1" y="375" type="curve"/>
      <point x="-1" y="264"/>
      <point x="16" y="180"/>
      <point x="49" y="124" type="curve"/>
      <point x="82" y="68"/>
      <point x="133" y="40"/>
      <point x="203" y="40" type="curve"/>
      <point x="236" y="40"/>
      <point x="265" y="48"/>
      <point x="292" y="65" type="curve"/>
      <point x="318" y="81"/>
      <point x="337" y="104"/>
      <point x="350" y="135" type="curve"/>
      <point x="380" y="72"/>
      <point x="427" y="40"/>
      <point x="492" y="40" type="curve"/>
      <point x="635" y="40"/>
      <point x="707" y="148"/>
      <point x="706" y="364" type="curve"/>
      <point x="817" y="364" type="line"/>
      <point x="856" y="219"/>
      <point x="913" y="75"/>
    </contour>
  </outline>
</glyph>
<glyph name="_BUe.isol" format="2">
  <advance width="1183"/>
  <outline>
    <contour>
      <point x="668" y="444" type="curve"/>
      <point x="127" y="444" type="line"/>
      <point x="136" y="527"/>
      <point x="164" y="590"/>
      <point x="211" y="634" type="curve"/>
      <point x="257" y="677"/>
      <point x="322" y="699"/>
      <point x="405" y="699" type="curve"/>
      <point x="505" y="699"/>
      <point x="578" y="659"/>
      <point x="625" y="578" type="curve"/>
      <point x="647" y="539"/>
      <point x="661" y="495"/>
    </contour>
    <contour>
      <point x="248" y="123" type="curve"/>
      <point x="215" y="123"/>
      <point x="189" y="133"/>
      <point x="171" y="153" type="curve"/>
      <point x="152" y="172"/>
      <point x="140" y="201"/>
      <point x="134" y="239" type="curve"/>
      <point x="127" y="276"/>
      <point x="124" y="317"/>
      <point x="124" y="364" type="curve"/>
      <point x="359" y="364" type="line"/>
      <point x="359" y="282" type="line"/>
      <point x="359" y="235"/>
      <point x="350" y="196"/>
      <point x="331" y="167" type="curve"/>
      <point x="312" y="138"/>
      <point x="284" y="123"/>
    </contour>
    <contour>
      <point x="538" y="123" type="curve"/>
      <point x="471" y="123"/>
      <point x="438" y="177"/>
      <point x="438" y="286" type="curve"/>
      <point x="438" y="364" type="line"/>
      <point x="673" y="364" type="line"/>
      <point x="672" y="247"/>
      <point x="653" y="175"/>
      <point x="617" y="147" type="curve"/>
      <point x="598" y="131"/>
      <point x="571" y="123"/>
    </contour>
    <contour>
      <point x="249" y="40" type="curve"/>
      <point x="282" y="40"/>
      <point x="311" y="48"/>
      <point x="338" y="65" type="curve"/>
      <point x="364" y="81"/>
      <point x="383" y="104"/>
      <point x="396" y="135" type="curve"/>
      <point x="426" y="72"/>
      <point x="473" y="40"/>
      <point x="538" y="40" type="curve"/>
      <point x="681" y="40"/>
      <point x="753" y="148"/>
      <point x="752" y="364" type="curve"/>
      <point x="963" y="364" type="line"/>
      <point x="998" y="364"/>
      <point x="1023" y="357"/>
      <point x="1038" y="343" type="curve"/>
      <point x="1053" y="328"/>
      <point x="1061" y="307"/>
      <point x="1061" y="279" type="curve"/>
      <point x="1061" y="235"/>
      <point x="1054" y="196"/>
      <point x="1039" y="162" type="curve"/>
      <point x="1113" y="162" type="line"/>
      <point x="1130" y="197"/>
      <point x="1138" y="236"/>
      <point x="1138" y="279" type="curve"/>
      <point x="1139" y="389"/>
      <point x="1080" y="444"/>
      <point x="963" y="444" type="curve"/>
      <point x="748" y="444" type="line"/>
      <point x="731" y="585"/>
      <point x="674" y="684"/>
      <point x="575" y="741" type="curve"/>
      <point x="527" y="768"/>
      <point x="470" y="782"/>
      <point x="405" y="782" type="curve"/>
      <point x="330" y="782"/>
      <point x="266" y="765"/>
      <point x="213" y="732" type="curve"/>
      <point x="159" y="698"/>
      <point x="117" y="650"/>
      <point x="88" y="588" type="curve"/>
      <point x="59" y="527"/>
      <point x="45" y="456"/>
      <point x="45" y="375" type="curve"/>
      <point x="45" y="264"/>
      <point x="62" y="180"/>
      <point x="95" y="124" type="curve"/>
      <point x="128" y="68"/>
      <point x="179" y="40"/>
    </contour>
  </outline>
</glyph>
<glyph name="_GI.init" format="2">
  <advance width="810"/>
  <outline>
    <contour>
      <point x="622" y="-67" type="curve"/>
      <point x="695" y="-31" type="line"/>
      <point x="613" y="98"/>
      <point x="559" y="230"/>
      <point x="533" y="364" type="curve"/>
      <point x="840" y="364" type="line"/>
      <point x="840" y="444" type="line"/>
      <point x="523" y="444" type="line"/>
      <point x="509" y="575"/>
      <point x="472" y="667"/>
      <point x="413" y="720" type="curve"/>
      <point x="381" y="747"/>
      <point x="339" y="760"/>
      <point x="287" y="760" type="curve"/>
      <point x="235" y="760"/>
      <point x="191" y="745"/>
      <point x="155" y="716" type="curve"/>
      <point x="118" y="686"/>
      <point x="91" y="644"/>
      <point x="72" y="590" type="curve"/>
      <point x="54" y="538"/>
      <point x="45" y="480"/>
      <point x="45" y="417" type="curve"/>
      <point x="45" y="299"/>
      <point x="88" y="174"/>
      <point x="174" y="42" type="curve"/>
      <point x="245" y="85" type="line"/>
      <point x="204" y="144"/>
      <point x="173" y="200"/>
      <point x="154" y="251" type="curve"/>
      <point x="134" y="302"/>
      <point x="124" y="358"/>
      <point x="124" y="417" type="curve"/>
      <point x="124" y="466"/>
      <point x="130" y="509"/>
      <point x="141" y="548" type="curve"/>
      <point x="152" y="586"/>
      <point x="170" y="617"/>
      <point x="193" y="641" type="curve"/>
      <point x="217" y="665"/>
      <point x="248" y="677"/>
      <point x="287" y="677" type="curve"/>
      <point x="320" y="677"/>
      <point x="347" y="669"/>
      <point x="368" y="652" type="curve"/>
      <point x="388" y="635"/>
      <point x="404" y="608"/>
      <point x="416" y="572" type="curve"/>
      <point x="427" y="542"/>
      <point x="437" y="491"/>
      <point x="447" y="418" type="curve"/>
      <point x="459" y="333"/>
      <point x="478" y="252"/>
      <point x="505" y="176" type="curve"/>
      <point x="533" y="96"/>
      <point x="572" y="15"/>
    </contour>
  </outline>
</glyph>
<glyph name="_I.isol" format="2">
  <advance width="548"/>
  <outline>
    <contour>
      <point x="174" y="42" type="curve"/>
      <point x="245" y="85" type="line"/>
      <point x="204" y="142"/>
      <point x="173" y="196"/>
      <point x="154" y="246" type="curve"/>
      <point x="134" y="296"/>
      <point x="124" y="350"/>
      <point x="124" y="407" type="curve"/>
      <point x="124" y="486"/>
      <point x="137" y="545"/>
      <point x="163" y="585" type="curve"/>
      <point x="189" y="624"/>
      <point x="226" y="644"/>
      <point x="273" y="644" type="curve"/>
      <point x="361" y="644"/>
      <point x="411" y="555"/>
      <point x="423" y="376" type="curve"/>
      <point x="503" y="386" type="line"/>
      <point x="497" y="485"/>
      <point x="477" y="565"/>
      <point x="443" y="625" type="curve"/>
      <point x="403" y="693"/>
      <point x="346" y="727"/>
      <point x="273" y="727" type="curve"/>
      <point x="224" y="727"/>
      <point x="182" y="713"/>
      <point x="148" y="686" type="curve"/>
      <point x="114" y="659"/>
      <point x="88" y="620"/>
      <point x="71" y="570" type="curve"/>
      <point x="54" y="521"/>
      <point x="45" y="467"/>
      <point x="45" y="407" type="curve"/>
      <point x="45" y="292"/>
      <point x="88" y="171"/>
    </contour>
  </outline>
</glyph>
<glyph name="_Jc.fina" format="2">
  <advance width="780"/>
  <anchor x="0" y="0" name="baluda"/>
  <anchor x="0" y="0" name="dagalga"/>
  <outline>
    <contour>
      <point x="0" y="100" type="curve"/>
      <point x="0" y="5" type="line"/>
      <point x="43" y="44"/>
      <point x="89" y="77"/>
      <point x="137" y="103" type="curve"/>
      <point x="245" y="161" type="line"/>
      <point x="319" y="201"/>
      <point x="351" y="262"/>
      <point x="351" y="364" type="curve"/>
      <point x="560" y="364" type="line"/>
      <point x="630" y="364"/>
      <point x="658" y="333"/>
      <point x="658" y="279" type="curve"/>
      <point x="658" y="236"/>
      <point x="651" y="197"/>
      <point x="636" y="162" type="curve"/>
      <point x="710" y="162" type="line"/>
      <point x="727" y="197"/>
      <point x="735" y="236"/>
      <point x="735" y="279" type="curve"/>
      <point x="735" y="389"/>
      <point x="677" y="444"/>
      <point x="560" y="444" type="curve"/>
      <point x="0" y="444" type="line"/>
      <point x="0" y="364" type="line"/>
      <point x="274" y="364" type="line"/>
      <point x="274" y="293"/>
      <point x="255" y="254"/>
      <point x="196" y="222" type="curve"/>
      <point x="114" y="178" type="line"/>
      <point x="60" y="149"/>
      <point x="22" y="122"/>
    </contour>
    <contour>
      <point x="215" y="519" type="curve"/>
      <point x="282" y="519"/>
      <point x="334" y="573"/>
      <point x="334" y="638" type="curve"/>
      <point x="334" y="705"/>
      <point x="280" y="757"/>
      <point x="215" y="757" type="curve"/>
      <point x="148" y="757"/>
      <point x="96" y="703"/>
      <point x="96" y="638" type="curve"/>
      <point x="96" y="571"/>
      <point x="150" y="519"/>
    </contour>
    <contour>
      <point x="215" y="569" type="curve"/>
      <point x="179" y="569"/>
      <point x="147" y="595"/>
      <point x="147" y="638" type="curve"/>
      <point x="147" y="678"/>
      <point x="176" y="706"/>
      <point x="215" y="706" type="curve"/>
      <point x="255" y="706"/>
      <point x="284" y="676"/>
      <point x="284" y="638" type="curve"/>
      <point x="284" y="599"/>
      <point x="254" y="569"/>
    </contour>
  </outline>
</glyph>
<glyph name="_K2A.init" format="2">
  <advance width="714"/>
  <outline>
    <contour>
      <point x="244" y="35" type="curve"/>
      <point x="306" y="90" type="line"/>
      <point x="185" y="221"/>
      <point x="124" y="330"/>
      <point x="124" y="419" type="curve"/>
      <point x="124" y="511"/>
      <point x="145" y="576"/>
      <point x="187" y="614" type="curve"/>
      <point x="209" y="634"/>
      <point x="238" y="644"/>
      <point x="274" y="644" type="curve"/>
      <point x="313" y="644"/>
      <point x="343" y="633"/>
      <point x="365" y="611" type="curve"/>
      <point x="386" y="589"/>
      <point x="402" y="556"/>
      <point x="411" y="512" type="curve"/>
      <point x="420" y="470"/>
      <point x="426" y="421"/>
      <point x="430" y="364" type="curve"/>
      <point x="449" y="96" type="line"/>
      <point x="515" y="96" type="line"/>
      <point x="534" y="364" type="line"/>
      <point x="744" y="364" type="line"/>
      <point x="744" y="444" type="line"/>
      <point x="503" y="444" type="line"/>
      <point x="489" y="565"/>
      <point x="453" y="648"/>
      <point x="396" y="692" type="curve"/>
      <point x="365" y="715"/>
      <point x="324" y="727"/>
      <point x="274" y="727" type="curve"/>
      <point x="225" y="727"/>
      <point x="183" y="714"/>
      <point x="149" y="688" type="curve"/>
      <point x="114" y="662"/>
      <point x="88" y="625"/>
      <point x="71" y="577" type="curve"/>
      <point x="54" y="531"/>
      <point x="45" y="478"/>
      <point x="45" y="419" type="curve"/>
      <point x="45" y="96" type="line"/>
      <point x="111" y="96" type="line"/>
      <point x="119" y="215" type="line"/>
      <point x="146" y="158"/>
      <point x="187" y="98"/>
    </contour>
  </outline>
</glyph>
<glyph name="_K2O.init" format="2">
  <advance width="885"/>
  <outline>
    <contour>
      <point x="512" y="123" type="curve"/>
      <point x="443" y="124"/>
      <point x="408" y="174"/>
      <point x="408" y="275" type="curve"/>
      <point x="408" y="310"/>
      <point x="413" y="340"/>
      <point x="424" y="364" type="curve"/>
      <point x="623" y="364" type="line"/>
      <point x="624" y="354"/>
      <point x="625" y="344"/>
      <point x="625" y="334" type="curve"/>
      <point x="625" y="303" type="line"/>
      <point x="625" y="244"/>
      <point x="615" y="200"/>
      <point x="595" y="169" type="curve"/>
      <point x="574" y="138"/>
      <point x="547" y="123"/>
    </contour>
    <contour>
      <point x="224" y="35" type="curve"/>
      <point x="286" y="80" type="line"/>
      <point x="221" y="161"/>
      <point x="174" y="236"/>
      <point x="147" y="304" type="curve"/>
      <point x="132" y="342"/>
      <point x="124" y="380"/>
      <point x="124" y="419" type="curve"/>
      <point x="124" y="498"/>
      <point x="146" y="561"/>
      <point x="189" y="608" type="curve"/>
      <point x="232" y="654"/>
      <point x="290" y="677"/>
      <point x="365" y="677" type="curve"/>
      <point x="503" y="677"/>
      <point x="586" y="599"/>
      <point x="614" y="444" type="curve"/>
      <point x="367" y="444" type="line"/>
      <point x="342" y="389"/>
      <point x="329" y="332"/>
      <point x="329" y="275" type="curve"/>
      <point x="329" y="202"/>
      <point x="345" y="145"/>
      <point x="377" y="103" type="curve"/>
      <point x="409" y="61"/>
      <point x="456" y="40"/>
      <point x="519" y="40" type="curve"/>
      <point x="590" y="40"/>
      <point x="644" y="82"/>
      <point x="680" y="166" type="curve"/>
      <point x="696" y="205"/>
      <point x="704" y="251"/>
      <point x="704" y="303" type="curve"/>
      <point x="704" y="334" type="line"/>
      <point x="704" y="344"/>
      <point x="703" y="354"/>
      <point x="702" y="364" type="curve"/>
      <point x="915" y="364" type="line"/>
      <point x="915" y="444" type="line"/>
      <point x="693" y="444" type="line"/>
      <point x="654" y="655"/>
      <point x="545" y="760"/>
      <point x="365" y="760" type="curve"/>
      <point x="300" y="760"/>
      <point x="244" y="746"/>
      <point x="196" y="718" type="curve"/>
      <point x="148" y="690"/>
      <point x="111" y="649"/>
      <point x="84" y="595" type="curve"/>
      <point x="58" y="542"/>
      <point x="45" y="480"/>
      <point x="45" y="408" type="curve"/>
      <point x="45" y="76" type="line"/>
      <point x="111" y="76" type="line"/>
      <point x="119" y="192" type="line"/>
      <point x="142" y="148"/>
      <point x="177" y="96"/>
    </contour>
  </outline>
</glyph>
<glyph name="_L.init" format="2">
  <advance width="492"/>
  <outline>
    <contour>
      <point x="200" y="437" type="curve"/>
      <point x="226" y="74" type="line"/>
      <point x="292" y="74" type="line"/>
      <point x="302" y="219" type="line"/>
      <point x="305" y="293"/>
      <point x="324" y="337"/>
      <point x="361" y="351" type="curve"/>
      <point x="381" y="360"/>
      <point x="409" y="364"/>
      <point x="445" y="364" type="curve"/>
      <point x="522" y="364" type="line"/>
      <point x="522" y="444" type="line"/>
      <point x="444" y="444" type="line"/>
      <point x="360" y="444"/>
      <point x="307" y="416"/>
      <point x="285" y="361" type="curve"/>
      <point x="281" y="361" type="line"/>
      <point x="278" y="445" type="line"/>
      <point x="276" y="500"/>
      <point x="270" y="543"/>
      <point x="259" y="573" type="curve"/>
      <point x="265" y="634"/>
      <point x="292" y="699"/>
      <point x="339" y="766" type="curve"/>
      <point x="339" y="832" type="line"/>
      <point x="219" y="832" type="line"/>
      <point x="177" y="832"/>
      <point x="142" y="834"/>
      <point x="114" y="839" type="curve"/>
      <point x="85" y="843"/>
      <point x="60" y="853"/>
      <point x="39" y="868" type="curve"/>
      <point x="39" y="790" type="line"/>
      <point x="57" y="775"/>
      <point x="80" y="765"/>
      <point x="108" y="760" type="curve"/>
      <point x="135" y="755"/>
      <point x="172" y="752"/>
      <point x="219" y="752" type="curve"/>
      <point x="247" y="752" type="line"/>
      <point x="228" y="723"/>
      <point x="212" y="686"/>
      <point x="200" y="642" type="curve"/>
      <point x="181" y="649"/>
      <point x="161" y="653"/>
      <point x="139" y="653" type="curve"/>
      <point x="100" y="653"/>
      <point x="57" y="643"/>
      <point x="10" y="623" type="curve"/>
      <point x="10" y="550" type="line"/>
      <point x="51" y="567"/>
      <point x="87" y="575"/>
      <point x="118" y="575" type="curve"/>
      <point x="147" y="575"/>
      <point x="168" y="564"/>
      <point x="179" y="541" type="curve"/>
      <point x="190" y="518"/>
      <point x="197" y="484"/>
    </contour>
  </outline>
</glyph>
<glyph name="_M.medi" format="2">
  <advance width="284"/>
  <outline>
    <contour>
      <point x="19" y="96" type="line"/>
      <point x="85" y="96" type="line"/>
      <point x="104" y="364" type="line"/>
      <point x="314" y="364" type="line"/>
      <point x="314" y="444" type="line"/>
      <point x="84" y="444" type="line"/>
      <point x="81" y="518"/>
      <point x="71" y="583"/>
      <point x="54" y="639" type="curve"/>
      <point x="90" y="639" type="line"/>
      <point x="137" y="639"/>
      <point x="174" y="641"/>
      <point x="201" y="646" type="curve"/>
      <point x="228" y="651"/>
      <point x="250" y="661"/>
      <point x="269" y="677" type="curve"/>
      <point x="269" y="754" type="line"/>
      <point x="234" y="731"/>
      <point x="174" y="719"/>
      <point x="90" y="719" type="curve"/>
      <point x="-31" y="719" type="line"/>
      <point x="-31" y="653" type="line"/>
      <point x="-1" y="585"/>
      <point x="14" y="515"/>
      <point x="14" y="444" type="curve"/>
      <point x="0" y="444" type="line"/>
      <point x="0" y="364" type="line"/>
    </contour>
  </outline>
</glyph>
<glyph name="_Rr.medi" format="2">
  <advance width="253"/>
  <anchor x="0" y="0" name="baluda"/>
  <anchor x="0" y="0" name="dagalga"/>
  <outline>
    <contour>
      <point x="0" y="96" type="line"/>
      <point x="73" y="96" type="line"/>
      <point x="73" y="364" type="line"/>
      <point x="283" y="364" type="line"/>
      <point x="283" y="444" type="line"/>
      <point x="73" y="444" type="line"/>
      <point x="73" y="712" type="line"/>
      <point x="0" y="712" type="line"/>
    </contour>
  </outline>
</glyph>
<glyph name="_S.fina" format="2">
  <advance width="685"/>
  <outline>
    <contour>
      <point x="27" y="73" type="curve"/>
      <point x="105" y="73" type="line"/>
      <point x="92" y="124"/>
      <point x="86" y="191"/>
      <point x="86" y="276" type="curve"/>
      <point x="86" y="393"/>
      <point x="113" y="506"/>
      <point x="166" y="613" type="curve"/>
      <point x="170" y="613" type="line"/>
      <point x="179" y="519"/>
      <point x="197" y="431"/>
      <point x="222" y="350" type="curve"/>
      <point x="247" y="269"/>
      <point x="283" y="187"/>
      <point x="328" y="106" type="curve"/>
      <point x="408" y="106" type="line"/>
      <point x="447" y="307"/>
      <point x="524" y="485"/>
      <point x="640" y="642" type="curve"/>
      <point x="543" y="642" type="line"/>
      <point x="456" y="517"/>
      <point x="395" y="378"/>
      <point x="358" y="223" type="curve"/>
      <point x="354" y="223" type="line"/>
      <point x="313" y="309"/>
      <point x="283" y="393"/>
      <point x="265" y="475" type="curve"/>
      <point x="247" y="559"/>
      <point x="238" y="645"/>
      <point x="238" y="734" type="curve"/>
      <point x="157" y="734" type="line"/>
      <point x="96" y="643"/>
      <point x="54" y="546"/>
      <point x="32" y="444" type="curve"/>
      <point x="0" y="444" type="line"/>
      <point x="0" y="364" type="line"/>
      <point x="0" y="277"/>
      <point x="9" y="180"/>
    </contour>
  </outline>
</glyph>
<glyph name="_Wc.medi" format="2">
  <advance width="377"/>
  <anchor x="1" y="0" name="baluda"/>
  <anchor x="1" y="0" name="dagalga"/>
  <outline>
    <contour>
      <point x="220" y="82" type="curve"/>
      <point x="253" y="82"/>
      <point x="283" y="90"/>
      <point x="310" y="107" type="curve"/>
      <point x="310" y="190" type="line"/>
      <point x="287" y="173"/>
      <point x="257" y="165"/>
      <point x="220" y="165" type="curve"/>
      <point x="125" y="165"/>
      <point x="78" y="243"/>
      <point x="78" y="407" type="curve"/>
      <point x="78" y="544"/>
      <point x="135" y="609"/>
      <point x="227" y="609" type="curve"/>
      <point x="315" y="609"/>
      <point x="367" y="525"/>
      <point x="377" y="376" type="curve"/>
      <point x="457" y="386" type="line"/>
      <point x="447" y="556"/>
      <point x="378" y="692"/>
      <point x="227" y="692" type="curve"/>
      <point x="78" y="692"/>
      <point x="-1" y="573"/>
      <point x="-1" y="407" type="curve"/>
      <point x="-1" y="192"/>
      <point x="76" y="82"/>
    </contour>
  </outline>
</glyph>
<glyph name="_Wd.medi" format="2">
  <advance width="377"/>
  <anchor x="1" y="0" name="baluda"/>
  <anchor x="1" y="0" name="dagalga"/>
  <outline>
    <contour>
      <point x="220" y="82" type="curve"/>
      <point x="253" y="82"/>
      <point x="283" y="90"/>
      <point x="310" y="107" type="curve"/>
      <point x="310" y="190" type="line"/>
      <point x="287" y="173"/>
      <point x="257" y="165"/>
      <point x="220" y="165" type="curve"/>
      <point x="125" y="165"/>
      <point x="78" y="243"/>
      <point x="78" y="407" type="curve"/>
      <point x="78" y="544"/>
      <point x="135" y="609"/>
      <point x="227" y="609" type="curve"/>
      <point x="315" y="609"/>
      <point x="367" y="525"/>
      <point x="377" y="376" type="curve"/>
      <point x="457" y="386" type="line"/>
      <point x="447" y="556"/>
      <point x="378" y="692"/>
      <point x="227" y="692" type="curve"/>
      <point x="78" y="692"/>
      <point x="-1" y="573"/>
      <point x="-1" y="407" type="curve"/>
      <point x="-1" y="192"/>
      <point x="76" y="82"/>
    </contour>
    <contour>
      <point x="599" y="519" type="curve"/>
      <point x="666" y="519"/>
      <point x="718" y="573"/>
      <point x="718" y="638" type="curve"/>
      <point x="718" y="705"/>
      <point x="664" y="757"/>
      <point x="599" y="757" type="curve"/>
      <point x="532" y="757"/>
      <point x="480" y="705"/>
      <point x="480" y="638" type="curve"/>
      <point x="480" y="571"/>
      <point x="533" y="519"/>
    </contour>
    <contour>
      <point x="599" y="569" type="curve"/>
      <point x="564" y="569"/>
      <point x="531" y="596"/>
      <point x="531" y="638" type="curve"/>
      <point x="531" y="677"/>
      <point x="560" y="706"/>
      <point x="599" y="706" type="curve"/>
      <point x="639" y="706"/>
      <point x="668" y="676"/>
      <point x="668" y="638" type="curve"/>
      <point x="668" y="599"/>
      <point x="638" y="569"/>
    </contour>
  </outline>
</glyph>
<glyph name="_WdI.init" format="2">
  <advance width="784"/>
  <anchor x="47" y="0" name="baluda"/>
  <anchor x="47" y="0" name="dagalga"/>
  <outline>
    <contour>
      <point x="462" y="220"/>
      <point x="519" y="76"/>
      <point x="596" y="-67" type="curve"/>
      <point x="669" y="-31" type="line"/>
      <point x="596" y="98"/>
      <point x="541" y="229"/>
      <point x="502" y="364" type="curve"/>
      <point x="814" y="364" type="line"/>
      <point x="814" y="444" type="line"/>
      <point x="496" y="444" type="line"/>
      <point x="473" y="590"/>
      <point x="404" y="692"/>
      <point x="273" y="692" type="curve"/>
      <point x="124" y="692"/>
      <point x="45" y="573"/>
      <point x="45" y="407" type="curve"/>
      <point x="45" y="192"/>
      <point x="122" y="82"/>
      <point x="266" y="82" type="curve"/>
      <point x="299" y="82"/>
      <point x="329" y="90"/>
      <point x="356" y="107" type="curve"/>
      <point x="356" y="190" type="line"/>
      <point x="333" y="173"/>
      <point x="303" y="165"/>
      <point x="266" y="165" type="curve"/>
      <point x="171" y="165"/>
      <point x="124" y="243"/>
      <point x="124" y="407" type="curve"/>
      <point x="124" y="544"/>
      <point x="181" y="609"/>
      <point x="273" y="609" type="curve"/>
      <point x="361" y="609"/>
      <point x="413" y="525"/>
      <point x="423" y="364" type="curve"/>
    </contour>
  </outline>
</glyph>
<glyph name="_Y.medi" format="2">
  <advance width="361"/>
  <outline>
    <contour>
      <point x="27" y="-70" type="curve"/>
      <point x="65" y="-119" type="line"/>
      <point x="118" y="-79"/>
      <point x="174" y="-42"/>
      <point x="233" y="-7" type="curve"/>
      <point x="166" y="124"/>
      <point x="114" y="247"/>
      <point x="78" y="364" type="curve"/>
      <point x="391" y="364" type="line"/>
      <point x="391" y="444" type="line"/>
      <point x="0" y="444" type="line"/>
      <point x="0" y="364" type="line"/>
      <point x="29" y="252"/>
      <point x="71" y="139"/>
      <point x="126" y="25" type="curve"/>
      <point x="91" y="-4"/>
      <point x="58" y="-36"/>
    </contour>
  </outline>
</glyph>
